<svg width="16" height="16" viewBox="0 0 16 16" fill="none" xmlns="http://www.w3.org/2000/svg">
<path d="M12.8135 1.78979C12.8611 1.80394 12.9058 1.82684 12.9443 1.85815C13.6439 2.42713 14.2412 3.11188 14.7109 3.88159L14.8438 4.10718C15.4864 5.24636 15.8354 6.52913 15.8584 7.8396C15.8829 9.2376 15.5354 10.6177 14.8506 11.8367C14.1658 13.0555 13.1684 14.0698 11.9619 14.7761C10.7554 15.4824 9.38243 15.8548 7.98438 15.8552C6.72718 15.8586 5.4874 15.5585 4.37109 14.9802C4.28218 14.9342 4.21503 14.8549 4.18457 14.7595C4.15412 14.6639 4.16292 14.5596 4.20898 14.4705C4.25507 14.3814 4.33515 14.3144 4.43066 14.2839C4.52614 14.2537 4.62976 14.2624 4.71875 14.3083L4.97949 14.4363C6.29565 15.049 7.77016 15.2462 9.20508 14.9968C10.7356 14.7308 12.1373 13.9713 13.1963 12.8347C14.2553 11.6981 14.9139 10.2464 15.0713 8.70093C15.2286 7.15552 14.8765 5.60082 14.0684 4.27417C13.6427 3.57779 13.101 2.95896 12.4678 2.44409C12.3906 2.38122 12.3417 2.29013 12.3311 2.19116C12.3205 2.09234 12.3492 1.99347 12.4111 1.91577V1.91479C12.4422 1.87609 12.4809 1.84391 12.5244 1.82007C12.5681 1.79621 12.6165 1.78139 12.666 1.77612C12.7155 1.77086 12.7657 1.77565 12.8135 1.78979ZM7.9834 0.101318C9.18835 0.0977484 10.3783 0.372148 11.459 0.905029L11.5225 0.944092C11.5809 0.989375 11.6245 1.05172 11.6484 1.1228C11.6723 1.19399 11.6746 1.27011 11.6553 1.34155L11.6289 1.41089C11.6072 1.45537 11.5771 1.49527 11.54 1.52808C11.5028 1.56102 11.4591 1.58615 11.4121 1.60229C11.3651 1.6184 11.3152 1.62495 11.2656 1.62183C11.2161 1.61867 11.1676 1.60561 11.123 1.58374C9.52736 0.800236 7.69583 0.641676 5.98926 1.1394C4.2827 1.63719 2.82367 2.75564 1.89941 4.27417C1.00305 5.74738 0.671745 7.49603 0.966797 9.19507C1.26199 10.8942 2.16412 12.4288 3.50488 13.5134C3.54341 13.5449 3.57609 13.5848 3.59961 13.6287C3.62296 13.6723 3.63766 13.72 3.64258 13.7693C3.64749 13.8188 3.64237 13.8692 3.62793 13.9167C3.61366 13.9637 3.58956 14.0067 3.55859 14.0447L3.55957 14.0457C3.52403 14.0906 3.47837 14.1263 3.42676 14.1511C3.37505 14.176 3.31812 14.1895 3.26074 14.1892C3.17381 14.1885 3.0894 14.1578 3.02246 14.1023V14.1013C1.75647 13.0768 0.838938 11.6853 0.396484 10.1179C-0.0461366 8.5499 0.00871308 6.8832 0.552734 5.34741C1.09676 3.81167 2.10364 2.48247 3.43457 1.54272C4.76533 0.603152 6.35438 0.100196 7.9834 0.101318Z" fill="#FF4100" stroke="#FF4100" stroke-width="0.2"/>
<path d="M7.72314 0.390137C7.81917 0.397758 7.90947 0.441779 7.97412 0.513184C8.03856 0.584505 8.07365 0.677816 8.07178 0.773926C8.06985 0.870152 8.03073 0.962019 7.96338 1.03076L7.96143 1.03271C7.02287 1.9361 6.28456 3.0275 5.79541 4.23486V4.23682C5.28897 5.419 5.02737 6.69193 5.02783 7.97803C5.04346 9.10281 5.24547 10.2162 5.62451 11.2729L5.79834 11.7231L5.80029 11.7271C6.24364 12.9538 6.98522 14.0509 7.9585 14.9194L7.95947 14.9204C8.01577 14.9716 8.05519 15.0387 8.07275 15.1128C8.09029 15.1868 8.08535 15.2645 8.05811 15.3354C8.03074 15.4065 7.98217 15.468 7.91943 15.5112C7.85681 15.5543 7.78257 15.5774 7.70654 15.5776H7.70557C7.63535 15.5774 7.56728 15.5574 7.5083 15.521L7.45264 15.48C6.3972 14.5335 5.59299 13.3399 5.11182 12.0063V12.0054C4.58081 10.7283 4.29619 9.36195 4.27295 7.979V7.97705C4.2761 6.58849 4.56178 5.21505 5.11377 3.94092C5.64051 2.63521 6.43716 1.45535 7.45068 0.478027L7.45654 0.471191L7.45752 0.472168C7.53249 0.412017 7.62733 0.382644 7.72314 0.390137Z" fill="#FF4100" stroke="#FF4100" stroke-width="0.2"/>
<path d="M8.24219 0.367065C8.29357 0.366075 8.34499 0.374987 8.39258 0.394409C8.43886 0.413331 8.48023 0.44214 8.51562 0.477417H8.5166C9.53529 1.45348 10.3363 2.63416 10.8672 3.94128L11.0605 4.42371C11.481 5.55984 11.6964 6.76322 11.6953 7.97742V7.97937C11.6721 9.36259 11.3857 10.7284 10.8545 12.0057L10.8555 12.0067C10.371 13.3414 9.5625 14.5352 8.50293 15.4803C8.4377 15.5394 8.35353 15.5742 8.26562 15.578H8.26172C8.18555 15.5778 8.11059 15.5538 8.04785 15.5106C7.98539 15.4675 7.93748 15.4066 7.91016 15.3358C7.88284 15.2649 7.87708 15.1872 7.89453 15.1132C7.91205 15.0392 7.95169 14.972 8.00781 14.9208L8.00879 14.9198C8.98214 14.0513 9.72458 12.9543 10.168 11.7274L10.1689 11.7225C10.66 10.534 10.9217 9.26328 10.9395 7.97742L10.9277 7.49597C10.8712 6.37464 10.616 5.27059 10.1729 4.23621L10.1719 4.23425C9.68272 3.02702 8.94433 1.93639 8.00586 1.03308V1.0321C7.96912 1.00099 7.93856 0.963388 7.91602 0.920776C7.89196 0.875288 7.87712 0.825588 7.87305 0.774292C7.86899 0.723086 7.87509 0.671559 7.8916 0.622925C7.9082 0.574182 7.93517 0.52926 7.96973 0.491089C8.00428 0.452941 8.04594 0.421608 8.09277 0.400269C8.1396 0.37895 8.19074 0.368095 8.24219 0.367065Z" fill="#FF4100" stroke="#FF4100" stroke-width="0.2"/>
<path d="M14.373 11.4888C14.473 11.4889 14.5689 11.5285 14.6396 11.5991C14.7105 11.67 14.751 11.7665 14.751 11.8667C14.7509 11.9668 14.7104 12.0625 14.6396 12.1333C14.5689 12.2041 14.4731 12.2445 14.373 12.2446H1.59473C1.49461 12.2446 1.39892 12.2041 1.32812 12.1333C1.25734 12.0625 1.21683 11.9668 1.2168 11.8667C1.2168 11.7665 1.25728 11.67 1.32812 11.5991C1.39889 11.5285 1.49477 11.4888 1.59473 11.4888H14.373ZM15.4834 7.6001C15.5836 7.6001 15.6801 7.63964 15.751 7.71045C15.8218 7.7813 15.8613 7.87783 15.8613 7.97803C15.8612 8.07805 15.8217 8.17387 15.751 8.24463C15.6801 8.31548 15.5836 8.35596 15.4834 8.35596H0.483398C0.383362 8.35584 0.287542 8.31537 0.216797 8.24463C0.146061 8.17386 0.106532 8.07808 0.106445 7.97803C0.106445 7.87783 0.14595 7.7813 0.216797 7.71045C0.287531 7.63977 0.383413 7.60021 0.483398 7.6001H15.4834ZM14.373 3.71143C14.4731 3.71151 14.5689 3.75104 14.6396 3.82178C14.7104 3.89252 14.7509 3.98834 14.751 4.08838C14.751 4.18857 14.7105 4.28511 14.6396 4.35596C14.5689 4.42666 14.4731 4.46622 14.373 4.46631H1.59473C1.49469 4.46625 1.39891 4.42665 1.32812 4.35596C1.25728 4.28511 1.2168 4.18857 1.2168 4.08838C1.21691 3.98834 1.25738 3.89252 1.32812 3.82178C1.39891 3.75105 1.49466 3.71148 1.59473 3.71143H14.373Z" fill="#FF4100" stroke="#FF4100" stroke-width="0.2"/>
<path d="M7.9834 0.378174C8.08359 0.378174 8.18013 0.417678 8.25098 0.488525C8.32169 0.559265 8.36121 0.655116 8.36133 0.755127V15.2004C8.36121 15.3005 8.32169 15.3963 8.25098 15.467C8.18013 15.5379 8.08359 15.5774 7.9834 15.5774C7.88336 15.5773 7.78754 15.5378 7.7168 15.467C7.64605 15.3963 7.60656 15.3005 7.60645 15.2004V0.755127C7.60656 0.655091 7.64605 0.55927 7.7168 0.488525C7.78754 0.417781 7.88336 0.378289 7.9834 0.378174Z" fill="#FF4100" stroke="#FF4100" stroke-width="0.2"/>
</svg>
